<?xml version="1.0" encoding="UTF-8"?>
<svg version="1.1" xmlns="http://www.w3.org/2000/svg" width="135" height="154">
<path d="M0 0 C4.13346697 1.78141921 7.94722881 4.01490318 11.8125 6.3125 C12.91400391 6.94897461 14.01550781 7.58544922 15.15039062 8.24121094 C17.38792404 9.53638607 19.62121741 10.83891538 21.85009766 12.14892578 C24.64501552 13.79138953 27.44932783 15.41505149 30.26171875 17.02734375 C34.0981983 19.22870423 37.92310066 21.44893519 41.74169922 23.68115234 C44.11828735 25.06907981 46.49852388 26.45062281 48.87890625 27.83203125 C50.44028535 28.74187665 52.00149006 29.65202139 53.5625 30.5625 C54.28373047 30.98047852 55.00496094 31.39845703 55.74804688 31.82910156 C58.41930878 33.39362351 60.80103793 34.80103793 63 37 C63.214008 39.53753197 63.30409826 41.96736836 63.30639648 44.50732422 C63.31472 45.28147675 63.32304352 46.05562927 63.33161926 46.85324097 C63.35577644 49.42044051 63.3644984 51.98738624 63.37109375 54.5546875 C63.38005601 56.33586709 63.38917778 58.11704589 63.39845276 59.89822388 C63.41496104 63.63578117 63.42264616 67.37324869 63.42553711 71.11083984 C63.43092171 75.90191506 63.46859656 80.69214742 63.51428127 85.48298454 C63.54401447 89.16329025 63.55125985 92.84339214 63.55226326 96.52380753 C63.55647333 98.29008976 63.56893911 100.05637218 63.58978081 101.82253647 C63.61661801 104.29361767 63.61189397 106.76273454 63.59936523 109.23388672 C63.62161667 110.32969055 63.62161667 110.32969055 63.64431763 111.44763184 C63.59010303 115.19981844 63.3149817 116.68406255 60.62139893 119.38581848 C59.75633728 119.91849838 58.89127563 120.45117828 58 121 C56.74183472 121.7885437 56.74183472 121.7885437 55.45825195 122.59301758 C54.56066162 123.10501709 53.66307129 123.6170166 52.73828125 124.14453125 C51.71355713 124.73210205 50.68883301 125.31967285 49.63305664 125.92504883 C48.53727295 126.54790771 47.44148926 127.1707666 46.3125 127.8125 C44.57995703 128.80465262 42.84741778 129.79681182 41.11509705 130.78935242 C39.30729756 131.82442495 37.49846725 132.85767701 35.68945312 133.890625 C30.21251381 137.01968174 24.74740772 140.16926298 19.28329468 143.32064819 C17.58644218 144.29869993 15.88856501 145.27497323 14.19067383 146.2512207 C13.15966553 146.84507568 12.12865723 147.43893066 11.06640625 148.05078125 C10.15834229 148.57325439 9.25027832 149.09572754 8.31469727 149.6340332 C6.50873799 150.69977966 4.74478871 151.83680752 3 153 C-7.53063681 154.53388658 -14.50558164 152.0630528 -23.25 146.4375 C-24.92655244 145.41302227 -26.60314116 144.38859942 -28.28164673 143.36732483 C-30.01909326 142.30560656 -31.7483285 141.23131751 -33.47753906 140.15625 C-36.99998612 137.98172438 -40.57871631 135.9162075 -44.1796875 133.875 C-44.76500244 133.54258804 -45.35031738 133.21017609 -45.95336914 132.86769104 C-48.75816988 131.27636513 -51.56502075 129.68867323 -54.37207031 128.10131836 C-69.89912127 119.20175745 -69.89912127 119.20175745 -72 115 C-72.11864523 112.61621428 -72.1782656 110.26067514 -72.19287109 107.87573242 C-72.20104858 107.14220047 -72.20922607 106.40866852 -72.21765137 105.65290833 C-72.24250522 103.22043679 -72.2590213 100.78802362 -72.2734375 98.35546875 C-72.27876118 97.52506891 -72.28408485 96.69466908 -72.28956985 95.83910561 C-72.31630148 91.44377185 -72.33567626 87.04846649 -72.35009766 82.65307617 C-72.36674535 78.113231 -72.41152341 73.57411181 -72.4624691 69.03454113 C-72.496126 65.54379951 -72.50767332 62.05323053 -72.51332474 58.56234169 C-72.52004163 56.88897465 -72.53527523 55.21561915 -72.55921555 53.5424099 C-72.59083868 51.1984887 -72.59090926 48.85652971 -72.58349609 46.51245117 C-72.59990143 45.82291351 -72.61630676 45.13337585 -72.63320923 44.42294312 C-72.5839392 40.61176341 -72.09070905 39.10922238 -69.62239075 36.13713074 C-67.07449673 34.06071149 -64.59851447 32.37264662 -61.73828125 30.7578125 C-60.71387939 30.17362549 -59.68947754 29.58943848 -58.6340332 28.98754883 C-57.53792725 28.37290771 -56.44182129 27.7582666 -55.3125 27.125 C-53.57566639 26.13760597 -51.83884029 25.15019844 -50.10246277 24.16200256 C-48.29360071 23.1337883 -46.48283594 22.10898488 -44.671875 21.08447266 C-38.6966838 17.69888863 -32.7572339 14.25116645 -26.8125 10.8125 C-23.73298877 9.03445298 -20.65363068 7.25668885 -17.56494141 5.49462891 C-16.02019794 4.59448428 -14.49032425 3.66695561 -12.99365234 2.68896484 C-8.71946735 -0.06208234 -4.95840828 -1.15820732 0 0 Z " fill="#038BDF" transform="translate(72,1)"/>
<path d="M0 0 C1.24106003 0.00007553 2.48212006 0.00015106 3.76078796 0.00022888 C5.11502116 0.00533548 6.46925395 0.01055148 7.82348633 0.01586914 C9.20925343 0.01773456 10.59502119 0.01915788 11.98078918 0.02015686 C15.62549668 0.02397229 19.27016423 0.03379426 22.91485596 0.04486084 C26.63504496 0.05509589 30.35524042 0.05965897 34.07543945 0.06469727 C41.37298369 0.07541741 48.67049503 0.09248214 55.96801758 0.11352539 C55.80575684 1.04543701 55.64349609 1.97734863 55.47631836 2.9375 C54.9998436 5.91466629 54.83445426 8.66601757 54.84301758 11.67602539 C54.84043945 12.58481445 54.83786133 13.49360352 54.83520508 14.42993164 C54.96673706 17.08765133 55.42009975 19.51458846 55.96801758 22.11352539 C49.95409611 22.23740196 43.9409221 22.32799611 37.92602539 22.38818359 C35.88129739 22.41328122 33.83665869 22.44736703 31.79223633 22.49072266 C28.84800147 22.55158354 25.90495562 22.57978269 22.96020508 22.60180664 C22.05060028 22.62761307 21.14099548 22.65341949 20.2038269 22.68000793 C15.72610307 22.68197325 12.86905439 22.50251217 9.34350586 19.58300781 C8.55959473 18.76807861 7.77568359 17.95314941 6.96801758 17.11352539 C6.34926758 17.93852539 5.73051758 18.76352539 5.09301758 19.61352539 C2.53458833 22.17926444 0.55472531 22.5528996 -3.03198242 22.67602539 C-6.45726707 22.492528 -7.97801919 22.14387971 -11.03198242 20.42602539 C-14.20537814 16.75678659 -15.0565944 14.49179609 -14.96948242 9.61352539 C-13.84978182 5.43330982 -12.36411406 3.81096529 -9.03198242 1.11352539 C-5.77826698 0.02895358 -3.42298922 -0.00694318 0 0 Z " fill="#4A93C0" transform="translate(47.031982421875,92.886474609375)"/>
<path d="M0 0 C0.69037354 0.32742187 1.38074707 0.65484375 2.09204102 0.9921875 C2.81319092 1.34152344 3.53434082 1.69085938 4.27734375 2.05078125 C5.02234131 2.4065625 5.76733887 2.76234375 6.53491211 3.12890625 C12.79914513 6.13154087 19.02314891 9.21374861 25.21484375 12.36328125 C23.23484375 13.35328125 23.23484375 13.35328125 21.21484375 14.36328125 C21.21484375 21.95328125 21.21484375 29.54328125 21.21484375 37.36328125 C21.87484375 37.36328125 22.53484375 37.36328125 23.21484375 37.36328125 C24.33984375 41.11328125 24.33984375 41.11328125 23.21484375 43.36328125 C21.56484375 43.36328125 19.91484375 43.36328125 18.21484375 43.36328125 C17.83265608 41.70713468 17.50089273 40.03871101 17.21484375 38.36328125 C17.54484375 38.03328125 17.87484375 37.70328125 18.21484375 37.36328125 C18.37170624 35.80379583 18.46561014 34.23785457 18.53125 32.671875 C18.5940918 31.25551758 18.5940918 31.25551758 18.65820312 29.81054688 C18.69751953 28.81732422 18.73683594 27.82410156 18.77734375 26.80078125 C18.84211914 25.30514648 18.84211914 25.30514648 18.90820312 23.77929688 C19.01464673 21.30743975 19.11666303 18.83547815 19.21484375 16.36328125 C18.51391602 16.68586914 17.81298828 17.00845703 17.09082031 17.34082031 C15.25499963 18.18310431 13.4156017 19.0176028 11.57421875 19.84765625 C9.84670063 20.62704815 8.11957817 21.40747874 6.40039062 22.20507812 C4.55234814 23.06205682 2.69697641 23.90121508 0.83984375 24.73828125 C-0.30226562 25.26164062 -1.444375 25.785 -2.62109375 26.32421875 C-7.8880594 28.05386426 -11.69270664 26.1130341 -16.6015625 23.9296875 C-17.69533203 23.44564453 -18.78910156 22.96160156 -19.91601562 22.46289062 C-21.04845703 21.95564453 -22.18089844 21.44839844 -23.34765625 20.92578125 C-24.48396484 20.42240234 -25.62027344 19.91902344 -26.79101562 19.40039062 C-35.79083597 15.40224035 -35.79083597 15.40224035 -39.78515625 13.36328125 C-39.78515625 12.70328125 -39.78515625 12.04328125 -39.78515625 11.36328125 C-39.26598633 11.13616455 -38.74681641 10.90904785 -38.21191406 10.67504883 C-33.86723135 8.76077437 -29.55582573 6.7919139 -25.26953125 4.75 C-24.32851563 4.30720703 -23.3875 3.86441406 -22.41796875 3.40820312 C-20.47575117 2.49367655 -18.53829966 1.56896723 -16.60546875 0.63476562 C-15.66960938 0.19841797 -14.73375 -0.23792969 -13.76953125 -0.6875 C-12.93131836 -1.08622314 -12.09310547 -1.48494629 -11.22949219 -1.89575195 C-7.08193269 -3.15302753 -3.78333945 -1.81042318 0 0 Z " fill="#F7FCFC" transform="translate(74.78515625,43.63671875)"/>
<path d="M0 0 C1.24106003 0.00007553 2.48212006 0.00015106 3.76078796 0.00022888 C5.11502116 0.00533548 6.46925395 0.01055148 7.82348633 0.01586914 C9.20925343 0.01773456 10.59502119 0.01915788 11.98078918 0.02015686 C15.62549668 0.02397229 19.27016423 0.03379426 22.91485596 0.04486084 C26.63504496 0.05509589 30.35524042 0.05965897 34.07543945 0.06469727 C41.37298369 0.07541741 48.67049503 0.09248214 55.96801758 0.11352539 C55.30801758 2.42352539 54.64801758 4.73352539 53.96801758 7.11352539 C36.47801758 7.44352539 18.98801758 7.77352539 0.96801758 8.11352539 C0.96801758 10.09352539 0.96801758 12.07352539 0.96801758 14.11352539 C-0.68198242 14.11352539 -2.33198242 14.11352539 -4.03198242 14.11352539 C-4.03198242 14.77352539 -4.03198242 15.43352539 -4.03198242 16.11352539 C-2.38198242 16.11352539 -0.73198242 16.11352539 0.96801758 16.11352539 C0.96801758 18.09352539 0.96801758 20.07352539 0.96801758 22.11352539 C-6.95083226 22.73461165 -6.95083226 22.73461165 -10.96948242 20.42602539 C-14.21902481 16.78259908 -15.05702828 14.51609346 -14.96948242 9.61352539 C-13.84978182 5.43330982 -12.36411406 3.81096529 -9.03198242 1.11352539 C-5.77826698 0.02895358 -3.42298922 -0.00694318 0 0 Z " fill="#F8FEFD" transform="translate(47.031982421875,92.886474609375)"/>
<path d="M0 0 C0 0.66 0 1.32 0 2 C-0.66 2 -1.32 2 -2 2 C-1.85785272 5.00021487 -1.71138304 8.00011789 -1.5625 11 C-1.52318359 11.83917969 -1.48386719 12.67835937 -1.44335938 13.54296875 C-1.24164466 17.54622999 -0.96297361 21.47106179 -0.375 25.4375 C0.04959136 29.47111797 -0.54552863 30.85827665 -3 34 C-0.03 34.495 -0.03 34.495 3 35 C3 35.33 3 35.66 3 36 C2.23214172 36.01030746 1.46428345 36.02061493 0.67315674 36.03123474 C-6.56601574 36.12924499 -13.8051037 36.23176442 -21.04413986 36.33933926 C-24.76572513 36.39448462 -28.48731837 36.44789102 -32.20898438 36.49731445 C-35.80112671 36.54508196 -39.39317589 36.59742891 -42.9852066 36.65294075 C-44.35509163 36.67330828 -45.72500214 36.69203046 -47.09493256 36.70907402 C-49.0148457 36.73324211 -50.93467488 36.76382225 -52.85449219 36.79467773 C-53.94703308 36.81022202 -55.03957397 36.8257663 -56.16522217 36.84178162 C-58.60672268 36.97804988 -60.66887263 37.29720582 -63 38 C-63 37.34 -63 36.68 -63 36 C-60.59940183 34.79970092 -59.10639351 34.88540257 -56.4296875 34.90234375 C-55.53378906 34.90556641 -54.63789062 34.90878906 -53.71484375 34.91210938 C-52.30912109 34.92467773 -52.30912109 34.92467773 -50.875 34.9375 C-49.93011719 34.94201172 -48.98523437 34.94652344 -48.01171875 34.95117188 C-45.67441613 34.96297643 -43.33723939 34.97944241 -41 35 C-41 33.02 -41 31.04 -41 29 C-41.78375 28.855625 -42.5675 28.71125 -43.375 28.5625 C-46 28 -46 28 -48 27 C-47.67 26.34 -47.34 25.68 -47 25 C-46.47792969 25.2165625 -45.95585938 25.433125 -45.41796875 25.65625 C-36.04709547 29.20109874 -28.15253642 29.06009226 -18.99609375 24.97265625 C-17.66070562 24.32194853 -16.32866309 23.66433154 -15 23 C-14.68758629 20.45058627 -14.48696579 17.99638487 -14.375 15.4375 C-14.33632812 14.72658203 -14.29765625 14.01566406 -14.2578125 13.28320312 C-14.16328217 11.52257575 -14.08054183 9.76132272 -14 8 C-14.99 8.66 -15.98 9.32 -17 10 C-19.1875 9.625 -19.1875 9.625 -21 9 C-19.81679424 8.36690809 -18.62812152 7.74403282 -17.4375 7.125 C-16.77621094 6.77695312 -16.11492187 6.42890625 -15.43359375 6.0703125 C-12.36551049 4.72094683 -9.23264658 3.86987581 -6 3 C-5.9708456 6.39581516 -5.95314932 9.79159786 -5.9375 13.1875 C-5.92912109 14.14720703 -5.92074219 15.10691406 -5.91210938 16.09570312 C-5.90888672 17.02705078 -5.90566406 17.95839844 -5.90234375 18.91796875 C-5.89710693 19.77156982 -5.89187012 20.6251709 -5.88647461 21.50463867 C-6.00420677 24.09246747 -6.42892956 26.47661953 -7 29 C-5.35 29.33 -3.7 29.66 -2 30 C-2 28.02 -2 26.04 -2 24 C-2.66 24 -3.32 24 -4 24 C-4 16.41 -4 8.82 -4 1 C-2 0 -2 0 0 0 Z " fill="#018ADE" transform="translate(100,57)"/>
<path d="M0 0 C4.63834485 1.41727204 8.98974228 2.9084843 13.25 5.25 C15.6538439 6.48031381 16.76109685 7 19.5 7 C22.35596519 5.85761392 25.04777243 4.51764822 27.7421875 3.03515625 C30.69426031 1.68169726 33.8774023 0.89217077 37 0 C37 4.95 37 9.9 37 15 C28.34560431 20.19263742 20.59049762 22.68421376 10.4296875 20.4296875 C6.51224248 19.20144566 2.85759957 18.04134765 0 15 C-0.29642569 12.28770497 -0.38061189 10.00260268 -0.25 7.3125 C-0.23195312 6.61060547 -0.21390625 5.90871094 -0.1953125 5.18554688 C-0.14826213 3.45644564 -0.07651873 1.72804795 0 0 Z " fill="#F3FBFD" transform="translate(49,65)"/>
<path d="M0 0 C0 0.66 0 1.32 0 2 C-0.66 2 -1.32 2 -2 2 C-1.85785272 5.00021487 -1.71138304 8.00011789 -1.5625 11 C-1.52318359 11.83917969 -1.48386719 12.67835937 -1.44335938 13.54296875 C-1.24164466 17.54622999 -0.96297361 21.47106179 -0.375 25.4375 C0.04959136 29.47111797 -0.54552863 30.85827665 -3 34 C-0.03 34.495 -0.03 34.495 3 35 C3 35.33 3 35.66 3 36 C2.23214172 36.01030746 1.46428345 36.02061493 0.67315674 36.03123474 C-6.56601574 36.12924499 -13.8051037 36.23176442 -21.04413986 36.33933926 C-24.76572513 36.39448462 -28.48731837 36.44789102 -32.20898438 36.49731445 C-35.80112671 36.54508196 -39.39317589 36.59742891 -42.9852066 36.65294075 C-44.35509163 36.67330828 -45.72500214 36.69203046 -47.09493256 36.70907402 C-49.0148457 36.73324211 -50.93467488 36.76382225 -52.85449219 36.79467773 C-53.94703308 36.81022202 -55.03957397 36.8257663 -56.16522217 36.84178162 C-58.60672268 36.97804988 -60.66887263 37.29720582 -63 38 C-63 37.34 -63 36.68 -63 36 C-60.59940183 34.79970092 -59.10639351 34.88540257 -56.4296875 34.90234375 C-55.53378906 34.90556641 -54.63789062 34.90878906 -53.71484375 34.91210938 C-52.30912109 34.92467773 -52.30912109 34.92467773 -50.875 34.9375 C-49.93011719 34.94201172 -48.98523437 34.94652344 -48.01171875 34.95117188 C-45.67441613 34.96297643 -43.33723939 34.97944241 -41 35 C-41 33.02 -41 31.04 -41 29 C-41.78375 28.855625 -42.5675 28.71125 -43.375 28.5625 C-46 28 -46 28 -48 27 C-47.67 26.34 -47.34 25.68 -47 25 C-45.824375 25.495 -44.64875 25.99 -43.4375 26.5 C-36.78535265 28.77068491 -29.93173069 28.24658331 -23 28 C-25 30 -25 30 -28.2578125 30.1953125 C-29.53398438 30.17210938 -30.81015625 30.14890625 -32.125 30.125 C-34.04699219 30.09792969 -34.04699219 30.09792969 -36.0078125 30.0703125 C-36.99523437 30.04710938 -37.98265625 30.02390625 -39 30 C-39 31.65 -39 33.3 -39 35 C-28.77 35 -18.54 35 -8 35 C-8.66 33.68 -9.32 32.36 -10 31 C-10.51520982 28.33646245 -10.72949913 25.70500869 -11 23 C-9.68 23 -8.36 23 -7 23 C-7 17.06 -7 11.12 -7 5 C-7.99 4.67 -8.98 4.34 -10 4 C-8.68 3.67 -7.36 3.34 -6 3 C-5.9708456 6.39581516 -5.95314932 9.79159786 -5.9375 13.1875 C-5.92912109 14.14720703 -5.92074219 15.10691406 -5.91210938 16.09570312 C-5.90888672 17.02705078 -5.90566406 17.95839844 -5.90234375 18.91796875 C-5.89710693 19.77156982 -5.89187012 20.6251709 -5.88647461 21.50463867 C-6.00420677 24.09246747 -6.42892956 26.47661953 -7 29 C-5.35 29.33 -3.7 29.66 -2 30 C-2 28.02 -2 26.04 -2 24 C-2.66 24 -3.32 24 -4 24 C-4 16.41 -4 8.82 -4 1 C-2 0 -2 0 0 0 Z " fill="#1788CC" transform="translate(100,57)"/>
<path d="M0 0 C13.2 0 26.4 0 40 0 C40.66 1.98 41.32 3.96 42 6 C28.14 6 14.28 6 0 6 C0 4.02 0 2.04 0 0 Z " fill="#F4FEFD" transform="translate(61,109)"/>
<path d="M0 0 C13.2 0 26.4 0 40 0 C40 1.98 40 3.96 40 6 C26.8 6 13.6 6 0 6 C0 4.02 0 2.04 0 0 Z " fill="#F5FDFE" transform="translate(61,101)"/>
<path d="M0 0 C0 0.66 0 1.32 0 2 C0.66 2 1.32 2 2 2 C1.67 3.65 1.34 5.3 1 7 C3.31 7 5.62 7 8 7 C8 8.98 8 10.96 8 13 C6.35 13 4.7 13 3 13 C3 13.66 3 14.32 3 15 C4.65 15 6.3 15 8 15 C8 16.98 8 18.96 8 21 C0.08115016 21.62108626 0.08115016 21.62108626 -3.9375 19.3125 C-7.18704239 15.66907369 -8.02504586 13.40256807 -7.9375 8.5 C-6.86463697 4.49464467 -4.70078012 0 0 0 Z " fill="#F2FCFC" transform="translate(40,94)"/>
<path d="M0 0 C0.66 0.33 1.32 0.66 2 1 C1.67 1.66 1.34 2.32 1 3 C0.34 3 -0.32 3 -1 3 C-1.33 3.99 -1.66 4.98 -2 6 C-4.0625 6.6875 -4.0625 6.6875 -6 7 C-5.91557844 16.56218731 -5.820688 26.12419697 -5.71247292 35.68614483 C-5.66255104 40.1262621 -5.61622064 44.56635606 -5.578125 49.0065918 C-5.54122028 53.29256488 -5.49484624 57.57834094 -5.44193649 61.86414528 C-5.4234201 63.49834546 -5.40830197 65.13258784 -5.39665604 66.76685143 C-5.37974628 69.05790712 -5.35070039 71.3485143 -5.31884766 73.6394043 C-5.30552399 74.94290329 -5.29220032 76.24640228 -5.2784729 77.58940125 C-5.01379432 80.83105402 -4.39879037 83.0884994 -3 86 C-3.99 86 -4.98 86 -6 86 C-8.37825127 82.43262309 -8.30243955 79.88191605 -8.30639648 75.76220703 C-8.31472 75.02852905 -8.32304352 74.29485107 -8.33161926 73.53894043 C-8.35572834 71.11184391 -8.36449239 68.68501609 -8.37109375 66.2578125 C-8.38005947 64.57013874 -8.38918131 62.88246581 -8.39845276 61.1947937 C-8.41494781 57.65572172 -8.42264379 54.1167444 -8.42553711 50.57763672 C-8.43092124 46.04561983 -8.46859952 41.51449416 -8.51428127 36.98272896 C-8.54404402 33.49625409 -8.55126049 30.00999403 -8.55226326 26.52340317 C-8.55646723 24.85284214 -8.56890875 23.18228056 -8.58978081 21.51184464 C-8.61668059 19.17275994 -8.61187591 16.83574314 -8.59936523 14.49658203 C-8.61419952 13.80861542 -8.62903381 13.1206488 -8.64431763 12.41183472 C-8.58681045 8.63041923 -8.09037183 7.10935316 -5.65003967 4.15646362 C-3 2 -3 2 0 0 Z " fill="#1D82C3" transform="translate(8,33)"/>
<path d="M0 0 C20.46 0 40.92 0 62 0 C61.34 2.31 60.68 4.62 60 7 C40.86 7 21.72 7 2 7 C4 5 4 5 6.32852173 4.75949097 C7.3011496 4.76393219 8.27377747 4.76837341 9.27587891 4.77294922 C10.92736435 4.77317581 10.92736435 4.77317581 12.61221313 4.77340698 C13.80494843 4.78372955 14.99768372 4.79405212 16.2265625 4.8046875 C17.44451508 4.8075174 18.66246765 4.81034729 19.91732788 4.81326294 C23.81998383 4.82448744 27.72241303 4.84959628 31.625 4.875 C34.26562169 4.88502686 36.90624697 4.89415322 39.546875 4.90234375 C46.0313278 4.92443419 52.5156477 4.95793408 59 5 C59 4.01 59 3.02 59 2 C29.795 1.505 29.795 1.505 0 1 C0 0.67 0 0.34 0 0 Z " fill="#BAE9FE" transform="translate(41,93)"/>
<path d="M0 0 C0 5.94 0 11.88 0 18 C-0.99 18.33 -1.98 18.66 -3 19 C-3 19.66 -3 20.32 -3 21 C-4.98 21 -6.96 21 -9 21 C-9.33 22.32 -9.66 23.64 -10 25 C-10.66 25 -11.32 25 -12 25 C-12 24.34 -12 23.68 -12 23 C-13.32 22.67 -14.64 22.34 -16 22 C-15.15115234 21.82791016 -15.15115234 21.82791016 -14.28515625 21.65234375 C-11.53615242 20.76821774 -10.03918801 20.08229981 -8 18 C-6.9490848 12.97412057 -6.89811637 8.11965266 -7 3 C-7.99 3.66 -8.98 4.32 -10 5 C-12.1875 4.625 -12.1875 4.625 -14 4 C-12.80029246 3.31793277 -11.58964795 2.65509103 -10.375 2 C-9.70210938 1.62875 -9.02921875 1.2575 -8.3359375 0.875 C-6 0 -6 0 0 0 Z " fill="#0E8AD7" transform="translate(93,62)"/>
<path d="M0 0 C2.58288117 3.96656751 3.83944912 7.27809868 3 12 C0.8125 13.9375 0.8125 13.9375 -2 15 C-3.65 14.67 -5.3 14.34 -7 14 C-7 9.38 -7 4.76 -7 0 C-2.90909091 -1.36363636 -2.90909091 -1.36363636 0 0 Z " fill="#128BD5" transform="translate(9,74)"/>
<path d="M0 0 C3.63 0 7.26 0 11 0 C11 4.29 11 8.58 11 13 C9.02 11.68 7.04 10.36 5 9 C3.35 10.32 1.7 11.64 0 13 C0 8.71 0 4.42 0 0 Z " fill="#DBF2FA" transform="translate(49,101)"/>
<path d="M0 0 C2.45956421 1.0236969 2.45956421 1.0236969 5 3 C5.51617527 5.7405173 5.6849906 7.87504602 5.64697266 10.62084961 C5.65573425 11.39514816 5.66449585 12.16944672 5.67352295 12.96720886 C5.69554873 15.52948884 5.68095291 18.09004591 5.6640625 20.65234375 C5.6674301 22.43209668 5.67228225 24.21184736 5.67855835 25.99159241 C5.68593423 29.72337723 5.6752028 33.45456396 5.65185547 37.1862793 C5.62338754 41.96960361 5.63975393 46.75152411 5.66971779 51.53479671 C5.68778937 55.21088733 5.68203311 58.88664539 5.66907883 62.56274605 C5.66574333 64.32619963 5.66983697 66.08968341 5.68147659 67.85310173 C5.69418132 70.31946559 5.67481594 72.78356095 5.64697266 75.24975586 C5.66215439 76.34320313 5.66215439 76.34320313 5.67764282 77.45874023 C5.59649633 81.33960023 5.28692728 82.71940273 2.45956421 85.48439026 C1.64790802 85.98454147 0.83625183 86.48469269 0 87 C-0.33 86.34 -0.66 85.68 -1 85 C-0.505 84.01 -0.505 84.01 0 83 C0.99 83 1.98 83 3 83 C3.06945186 72.88191941 3.12278674 62.76389535 3.15543652 52.64562511 C3.17110528 47.94750244 3.19236555 43.24954261 3.22631836 38.55151367 C3.25886877 34.01926888 3.27684389 29.48718091 3.28463173 24.95482826 C3.29018302 23.22401777 3.30102313 21.49321604 3.31719017 19.76247215 C3.33890737 17.34170224 3.34196937 14.92158377 3.34057617 12.50073242 C3.351362 11.78216064 3.36214783 11.06358887 3.3732605 10.32324219 C3.38563188 6.42650675 3.38563188 6.42650675 1.47871399 3.15620422 C0.99073837 2.77465683 0.50276276 2.39310944 0 2 C0 1.34 0 0.68 0 0 Z " fill="#218CD1" transform="translate(130,35)"/>
<path d="M0 0 C5.27494429 0.70736801 9.66495287 3.18184482 14.296875 5.6484375 C18.90708534 7.94413408 21.83465877 8.2753929 27 7 C27.7425 6.62875 28.485 6.2575 29.25 5.875 C29.8275 5.58625 30.405 5.2975 31 5 C31.99 5.33 32.98 5.66 34 6 C32.4470724 6.87144869 30.88214564 7.72153657 29.3125 8.5625 C28.44238281 9.03816406 27.57226562 9.51382813 26.67578125 10.00390625 C22.26439875 11.64609974 19.33624688 10.20509273 15.23046875 8.37109375 C13.8801488 7.73216187 12.53253134 7.08749122 11.1875 6.4375 C10.49462891 6.10814453 9.80175781 5.77878906 9.08789062 5.43945312 C7.38955052 4.63127749 5.69444231 3.81631623 4 3 C4.11369211 5.45933991 4.24042651 7.9167909 4.375 10.375 C4.4059375 11.07367188 4.436875 11.77234375 4.46875 12.4921875 C4.59499498 16.70185827 4.59499498 16.70185827 7 20 C5.68 19.67 4.36 19.34 3 19 C3 14.38 3 9.76 3 5 C1.35 5 -0.3 5 -2 5 C-1.34 3.35 -0.68 1.7 0 0 Z " fill="#3990C5" transform="translate(45,62)"/>
<path d="M0 0 C0.99 0 1.98 0 3 0 C3 7.26 3 14.52 3 22 C3.66 22 4.32 22 5 22 C6.125 25.75 6.125 25.75 5 28 C3.35 28 1.7 28 0 28 C-0.38218767 26.34385343 -0.71395102 24.67542976 -1 23 C-0.67 22.67 -0.34 22.34 0 22 C0.08700342 20.36527118 0.10701063 18.72685945 0.09765625 17.08984375 C0.09282227 15.60581055 0.09282227 15.60581055 0.08789062 14.09179688 C0.07951172 13.05087891 0.07113281 12.00996094 0.0625 10.9375 C0.05798828 9.89271484 0.05347656 8.84792969 0.04882812 7.77148438 C0.03699913 5.1809334 0.02051689 2.59049441 0 0 Z " fill="#8FE4FD" transform="translate(93,59)"/>
<path d="M0 0 C-3.72623466 2.13017236 -7.45648082 4.25322065 -11.1875 6.375 C-12.24259766 6.97828125 -13.29769531 7.5815625 -14.38476562 8.203125 C-15.40634766 8.78320312 -16.42792969 9.36328125 -17.48046875 9.9609375 C-18.41785889 10.49509277 -19.35524902 11.02924805 -20.32104492 11.57958984 C-22.83507666 12.91255591 -25.33862506 13.99961005 -28 15 C-28 14.34 -28 13.68 -28 13 C-28.66 12.67 -29.32 12.34 -30 12 C-26.7 11.34 -23.4 10.68 -20 10 C-20 9.34 -20 8.68 -20 8 C-19.01 8 -18.02 8 -17 8 C-17 7.34 -17 6.68 -17 6 C-16.01 6 -15.02 6 -14 6 C-14 5.01 -14 4.02 -14 3 C-5.42085948 -1.48455073 -5.42085948 -1.48455073 0 0 Z " fill="#459DD5" transform="translate(106,136)"/>
<path d="M0 0 C4.64682063 0.53338992 7.83065154 1.76990495 11.8359375 4.16015625 C12.89941406 4.78857422 13.96289062 5.41699219 15.05859375 6.06445312 C16.15300781 6.72380859 17.24742188 7.38316406 18.375 8.0625 C20.05142578 9.05733398 20.05142578 9.05733398 21.76171875 10.07226562 C24.51291926 11.70652576 27.25865159 13.34928534 30 15 C29.34 15.66 28.68 16.32 28 17 C24.7 15.35 21.4 13.7 18 12 C18 11.34 18 10.68 18 10 C15.03 10 12.06 10 9 10 C9.66 9.01 10.32 8.02 11 7 C9.7934375 6.566875 9.7934375 6.566875 8.5625 6.125 C6 5 6 5 5 3 C3.35636866 2.27840576 1.68949614 1.60648579 0 1 C0 0.67 0 0.34 0 0 Z " fill="#459CD0" transform="translate(68,1)"/>
<path d="M0 0 C0 0.66 0 1.32 0 2 C-0.66 2 -1.32 2 -2 2 C-1.85785272 5.00021487 -1.71138304 8.00011789 -1.5625 11 C-1.52318359 11.83917969 -1.48386719 12.67835937 -1.44335938 13.54296875 C-1.24089187 17.56117009 -0.96356897 21.51467034 -0.40234375 25.5 C0 29 0 29 -1 31 C-1.66 30.67 -2.32 30.34 -3 30 C-2.67 28.02 -2.34 26.04 -2 24 C-2.66 24 -3.32 24 -4 24 C-4 16.41 -4 8.82 -4 1 C-2 0 -2 0 0 0 Z " fill="#1B85C5" transform="translate(100,57)"/>
<path d="M0 0 C-1.00284055 2.6798128 -1.56906967 3.78375978 -4.171875 5.08984375 C-5.02265625 5.36957031 -5.8734375 5.64929688 -6.75 5.9375 C-11.41814665 7.63562291 -14.40923459 9.59822224 -18 13 C-18 12.34 -18 11.68 -18 11 C-18.99 10.67 -19.98 10.34 -21 10 C-18.25852669 8.31899223 -15.5055518 6.65781165 -12.75 5 C-11.97269531 4.52304687 -11.19539063 4.04609375 -10.39453125 3.5546875 C-9.26337891 2.87792969 -9.26337891 2.87792969 -8.109375 2.1875 C-7.07248535 1.55908203 -7.07248535 1.55908203 -6.01464844 0.91796875 C-4 0 -4 0 0 0 Z " fill="#57A3D5" transform="translate(31,22)"/>
<path d="M0 0 C0.66 0 1.32 0 2 0 C2 4.95 2 9.9 2 15 C0.02 15.99 0.02 15.99 -2 17 C-2 16.34 -2 15.68 -2 15 C-1.34 15 -0.68 15 0 15 C0 11.04 0 7.08 0 3 C-1.65 3 -3.3 3 -5 3 C-4.360625 2.690625 -3.72125 2.38125 -3.0625 2.0625 C-1.06389179 1.1654837 -1.06389179 1.1654837 0 0 Z " fill="#C2EEFE" transform="translate(84,65)"/>
<path d="M0 0 C1.2065625 0.0309375 1.2065625 0.0309375 2.4375 0.0625 C3.5625 3.8125 3.5625 3.8125 2.4375 6.0625 C0.7875 6.0625 -0.8625 6.0625 -2.5625 6.0625 C-2.94468767 4.40635343 -3.27645102 2.73792976 -3.5625 1.0625 C-2.5625 0.0625 -2.5625 0.0625 0 0 Z " fill="#DEF8FE" transform="translate(95.5625,80.9375)"/>
<path d="M0 0 C7.10005871 2.37553366 13.58214727 5.13344181 20 9 C19.01 9.66 18.02 10.32 17 11 C15 9 15 9 14 7 C13.34 6.87625 12.68 6.7525 12 6.625 C7.71389298 5.73206104 3.95042351 3.85041624 0 2 C0 1.34 0 0.68 0 0 Z " fill="#D3F7FD" transform="translate(80,47)"/>
<path d="M0 0 C-1.67741935 3.74193548 -1.67741935 3.74193548 -3.5625 5.25 C-5.93029216 8.13252959 -5.70012705 11.34155006 -6 15 C-8 12 -8 12 -7.9375 8.625 C-6.88997304 4.57456244 -4.77047017 0 0 0 Z " fill="#D6F7FE" transform="translate(40,94)"/>
<path d="M0 0 C0.66 0.66 1.32 1.32 2 2 C0.0852312 2.36428777 -1.83192293 2.71605306 -3.75 3.0625 C-4.81734375 3.25972656 -5.8846875 3.45695312 -6.984375 3.66015625 C-9.74771905 3.97156937 -11.40946617 3.8991416 -14 3 C-4.40701382 -1.86964222 -4.40701382 -1.86964222 0 0 Z " fill="#CDF0FB" transform="translate(71,42)"/>
<path d="M0 0 C0.66 0 1.32 0 2 0 C2.33 0.66 2.66 1.32 3 2 C5.02463255 2.65213292 5.02463255 2.65213292 7 3 C5.54462432 3.83848804 4.08559627 4.67063934 2.625 5.5 C1.40683594 6.19609375 1.40683594 6.19609375 0.1640625 6.90625 C-2 8 -2 8 -4 8 C-4 7.01 -4 6.02 -4 5 C-3.01 4.34 -2.02 3.68 -1 3 C-0.67 2.01 -0.34 1.02 0 0 Z " fill="#409BD3" transform="translate(120,121)"/>
<path d="M0 0 C1.98498051 0.92512666 3.96286018 1.86550237 5.9375 2.8125 C7.03964844 3.33457031 8.14179687 3.85664063 9.27734375 4.39453125 C12 6 12 6 13 9 C11.68 8.67 10.36 8.34 9 8 C9 7.34 9 6.68 9 6 C7.02 6 5.04 6 3 6 C2.67 5.01 2.34 4.02 2 3 C1.34 3 0.68 3 0 3 C0 2.01 0 1.02 0 0 Z " fill="#52A1CF" transform="translate(106,21)"/>
<path d="M0 0 C0.66 0.33 1.32 0.66 2 1 C1.67 1.66 1.34 2.32 1 3 C0.34 3 -0.32 3 -1 3 C-1.33 3.99 -1.66 4.98 -2 6 C-4.0625 6.6875 -4.0625 6.6875 -6 7 C-6.33 8.32 -6.66 9.64 -7 11 C-7.8125 9.3125 -7.8125 9.3125 -8 7 C-5.53973429 4.12969001 -3.14510786 2.09673857 0 0 Z " fill="#57A2CF" transform="translate(8,33)"/>
<path d="M0 0 C1.0209375 0.2165625 1.0209375 0.2165625 2.0625 0.4375 C5.36273082 1.06945909 8.67144426 1.54313941 12 2 C12 2.99 12 3.98 12 5 C9.44345185 5.95582656 8.39658231 6.17802782 5.859375 5.0390625 C5.16328125 4.57242188 4.4671875 4.10578125 3.75 3.625 C3.04359375 3.16351563 2.3371875 2.70203125 1.609375 2.2265625 C1.07828125 1.82179687 0.5471875 1.41703125 0 1 C0 0.67 0 0.34 0 0 Z " fill="#56A7D9" transform="translate(32,136)"/>
<path d="M0 0 C-1 3 -1 3 -3.0625 4.1875 C-3.701875 4.455625 -4.34125 4.72375 -5 5 C-5 5.99 -5 6.98 -5 8 C-6.98 7.34 -8.96 6.68 -11 6 C-11 5.34 -11 4.68 -11 4 C-9.5437455 3.32880451 -8.08492133 2.66318193 -6.625 2 C-5.81289063 1.62875 -5.00078125 1.2575 -4.1640625 0.875 C-2 0 -2 0 0 0 Z " fill="#D0F3FD" transform="translate(46,51)"/>
<path d="M0 0 C0.33 0.66 0.66 1.32 1 2 C-0.78174788 4.30142435 -2.16304165 5.80034391 -5.046875 6.48828125 C-7.0246611 6.72323102 -9.01271872 6.86751458 -11 7 C-7.53258866 4.04250209 -4.13126473 1.92151848 0 0 Z " fill="#53A2D3" transform="translate(59,4)"/>
<path d="M0 0 C0.66 0 1.32 0 2 0 C2.33 0.99 2.66 1.98 3 3 C-2.75 7 -2.75 7 -5 7 C-4.625 4.5625 -4.625 4.5625 -4 2 C-3.34 1.67 -2.68 1.34 -2 1 C-2 1.66 -2 2.32 -2 3 C-1.34 2.67 -0.68 2.34 0 2 C0 1.34 0 0.68 0 0 Z " fill="#3A99D6" transform="translate(111,128)"/>
<path d="M0 0 C-1.0975223 2.99324263 -1.67682892 3.84610901 -4.625 5.25 C-5.40875 5.4975 -6.1925 5.745 -7 6 C-7 4.68 -7 3.36 -7 2 C-4 0 -4 0 0 0 Z " fill="#3095D3" transform="translate(31,22)"/>
<path d="M0 0 C5.28137429 0.51525603 8.57221156 2.25477117 13 5 C12.34 5.66 11.68 6.32 11 7 C6.125 5.25 6.125 5.25 5 3 C3.35636866 2.27840576 1.68949614 1.60648579 0 1 C0 0.67 0 0.34 0 0 Z " fill="#58A2CE" transform="translate(68,1)"/>
<path d="M0 0 C0.33 0 0.66 0 1 0 C1 1.65 1 3.3 1 5 C-0.32 5.33 -1.64 5.66 -3 6 C-3.33 7.32 -3.66 8.64 -4 10 C-4.66 10 -5.32 10 -6 10 C-6 9.34 -6 8.68 -6 8 C-7.32 7.67 -8.64 7.34 -10 7 C-6.27034861 4.96564469 -4.33094958 4 0 4 C0 2.68 0 1.36 0 0 Z " fill="#178BD5" transform="translate(87,77)"/>
<path d="M0 0 C-3.60957611 3.2910841 -6.12637153 4.54663921 -11 5 C-10.34 4.67 -9.68 4.34 -9 4 C-8.67 3.01 -8.34 2.02 -8 1 C-5.29120665 -0.35439668 -2.99066732 -0.06501451 0 0 Z " fill="#1D8ACE" transform="translate(46,50)"/>
<path d="M0 0 C2.64 0.33 5.28 0.66 8 1 C8.33 2.32 8.66 3.64 9 5 C5.22454612 3.90931332 2.52956528 3.0916909 0 0 Z " fill="#6DAFD6" transform="translate(23,131)"/>
<path d="M0 0 C1.32 0 2.64 0 4 0 C4 0.66 4 1.32 4 2 C6.31 2.33 8.62 2.66 11 3 C11.33 4.32 11.66 5.64 12 7 C8.04 5.02 4.08 3.04 0 1 C0 0.67 0 0.34 0 0 Z " fill="#248DCF" transform="translate(89,50)"/>
<path d="M0 0 C0 2 0 2 -1.0625 3.5625 C-3.86337489 5.64056847 -6.58791584 5.67810527 -10 6 C-7.35570758 3.077361 -4.105808 0 0 0 Z " fill="#60A8D3" transform="translate(43,14)"/>
<path d="M0 0 C3.3 1.65 6.6 3.3 10 5 C6.29847322 5.92538169 5.36541838 6.08174162 2 5 C2 4.01 2 3.02 2 2 C1.34 2 0.68 2 0 2 C0 1.34 0 0.68 0 0 Z " fill="#63A7D1" transform="translate(120,29)"/>
<path d="M0 0 C2.02045442 0.60183749 4.02111039 1.27306096 6 2 C6.33 2.66 6.66 3.32 7 4 C4 5 4 5 1.8125 4.0625 C1.214375 3.711875 0.61625 3.36125 0 3 C0 2.01 0 1.02 0 0 Z " fill="#4B9DD4" transform="translate(98,17)"/>
<path d="M0 0 C0.99 0.33 1.98 0.66 3 1 C4.1875 3.5625 4.1875 3.5625 5 6 C4.01 6 3.02 6 2 6 C0 3 0 3 0 0 Z " fill="#5CA3CF" transform="translate(0,113)"/>
<path d="M0 0 C2.475 0.495 2.475 0.495 5 1 C3.35 2.65 1.7 4.3 0 6 C0 4.02 0 2.04 0 0 Z " fill="#E3FDFF" transform="translate(50,107)"/>
<path d="" fill="#FFFFFF" transform="translate(0,0)"/>
<path d="" fill="#FFFFFF" transform="translate(0,0)"/>
<path d="" fill="#FFFFFF" transform="translate(0,0)"/>
</svg>
